<?xml version="1.0" encoding="utf-8"?>
<!-- Generator: Adobe Illustrator 18.0.0, SVG Export Plug-In . SVG Version: 6.00 Build 0)  -->
<!DOCTYPE svg PUBLIC "-//W3C//DTD SVG 1.1//EN" "http://www.w3.org/Graphics/SVG/1.1/DTD/svg11.dtd">
<svg version="1.1" id="Layer_1" xmlns="http://www.w3.org/2000/svg" xmlns:xlink="http://www.w3.org/1999/xlink" x="0px" y="0px"
	 viewBox="3 4 60 60" enable-background="new 3 4 60 60" xml:space="preserve">
<g>
	<path fill="#CF3427" d="M3,4v60h60V4H3z M36.9,19.5h2V27c0,0.2,0,0.4,0.1,0.5c0.1,0.1,0.2,0.2,0.4,0.2c0.1,0,0.3-0.1,0.5-0.2
		c0.2-0.1,0.4-0.3,0.6-0.5v-7.4h2v9.8h-2v-1.1c-0.4,0.4-0.7,0.7-1.1,0.9c-0.4,0.2-0.8,0.3-1.1,0.3c-0.5,0-0.8-0.1-1-0.4
		c-0.2-0.3-0.3-0.7-0.3-1.3V19.5z M29.6,21.7c0-0.8,0.3-1.4,0.8-1.8c0.5-0.4,1.2-0.7,2.1-0.7c0.8,0,1.5,0.2,2,0.7
		c0.5,0.5,0.8,1.1,0.8,1.8v5.1c0,0.8-0.3,1.5-0.8,2c-0.5,0.5-1.2,0.7-2.1,0.7c-0.9,0-1.5-0.2-2.1-0.7c-0.5-0.5-0.8-1.2-0.8-2V21.7z
		 M24.3,16l1.4,5.3h0.1l1.4-5.3h2.2l-2.6,7.8v5.5h-2.2V24L22,16H24.3z M46.5,51.5C45.1,53,33,53,33,53s-12.1,0-13.5-1.5
		C18,50.1,18,43,18,43c0,0,0-7.1,1.4-8.6C20.9,33,33,33,33,33c0,0,12.1,0,13.5,1.5c1.4,1.4,1.5,8.5,1.5,8.6C48,43,48,50.1,46.5,51.5
		z"/>
	<path fill="#CF3427" d="M42.6,39.8c-0.8,0-1.4,0.2-1.9,0.7s-0.7,1.1-0.7,1.9v4c0,0.9,0.2,1.5,0.7,2c0.4,0.5,1.1,0.7,1.8,0.7
		c0.9,0,1.5-0.2,2-0.7c0.4-0.5,0.7-1.1,0.7-2.1v-0.5h-1.8v0.4c0,0.5-0.1,0.9-0.2,1c-0.1,0.2-0.3,0.2-0.6,0.2c-0.3,0-0.5-0.1-0.6-0.3
		c-0.1-0.2-0.2-0.5-0.2-1v-1.7h3.3v-2.3c0-0.8-0.2-1.5-0.6-1.9C44,40,43.4,39.8,42.6,39.8z M43.3,43.3h-1.5v-0.9
		c0-0.4,0.1-0.6,0.2-0.8c0.1-0.2,0.3-0.2,0.6-0.2c0.3,0,0.5,0.1,0.6,0.2c0.1,0.2,0.2,0.4,0.2,0.8V43.3z"/>
	<path fill="#CF3427" d="M37.3,39.9c-0.3,0-0.5,0.1-0.8,0.2c-0.3,0.1-0.5,0.3-0.7,0.6v-3.9H34v12h1.8v-0.7c0.2,0.3,0.5,0.5,0.7,0.6
		c0.3,0.1,0.6,0.2,0.9,0.2c0.5,0,0.9-0.2,1.2-0.5c0.3-0.3,0.4-0.8,0.4-1.4v-4.9c0-0.7-0.1-1.3-0.4-1.7
		C38.3,40.1,37.9,39.9,37.3,39.9z M37.2,46.8c0,0.3-0.1,0.5-0.2,0.6c-0.1,0.1-0.3,0.2-0.5,0.2c-0.1,0-0.3,0-0.4-0.1
		c-0.1-0.1-0.3-0.2-0.4-0.3v-5.5c0.1-0.1,0.2-0.2,0.4-0.3c0.1-0.1,0.2-0.1,0.4-0.1c0.2,0,0.4,0.1,0.5,0.2c0.1,0.2,0.2,0.4,0.2,0.7
		V46.8z"/>
	<path fill="#CF3427" d="M31,46.8c-0.2,0.2-0.3,0.3-0.5,0.5c-0.2,0.1-0.4,0.2-0.5,0.2c-0.2,0-0.3,0-0.4-0.1
		c-0.1-0.1-0.1-0.2-0.1-0.5V40h-1.7v7.4c0,0.5,0.1,0.9,0.3,1.2c0.2,0.3,0.5,0.4,0.9,0.4c0.3,0,0.7-0.1,1-0.3c0.4-0.2,0.7-0.5,1-0.8
		v1h1.7V40H31V46.8z"/>
	<polygon fill="#CF3427" points="20.9,38.6 22.9,38.6 22.9,48.9 24.9,48.9 24.9,38.6 27,38.6 27,36.9 20.9,36.9 	"/>
	<path fill="#CF3427" d="M32.4,27.8c0.3,0,0.5-0.1,0.6-0.2c0.2-0.2,0.2-0.4,0.2-0.6v-5.3c0-0.2-0.1-0.4-0.2-0.5
		c-0.2-0.1-0.4-0.2-0.6-0.2c-0.2,0-0.4,0.1-0.6,0.2c-0.1,0.1-0.2,0.3-0.2,0.5V27c0,0.3,0.1,0.5,0.2,0.6C32,27.7,32.2,27.8,32.4,27.8
		z"/>
</g>
</svg>
