<?xml version="1.0" encoding="utf-8"?>
<!-- Generator: Adobe Illustrator 18.0.0, SVG Export Plug-In . SVG Version: 6.00 Build 0)  -->
<!DOCTYPE svg PUBLIC "-//W3C//DTD SVG 1.1//EN" "http://www.w3.org/Graphics/SVG/1.1/DTD/svg11.dtd">
<svg version="1.1" id="Layer_1" xmlns="http://www.w3.org/2000/svg" xmlns:xlink="http://www.w3.org/1999/xlink" x="0px" y="0px"
	 viewBox="0 0 624 624" enable-background="new 0 0 624 624" xml:space="preserve">
<g>
	<path fill="#FFFFFF" d="M357.3,249.4c-41.9-35.5-25.8-95.5-25.8-95.5s-7.3,10.6-17,26c-2.5,11.7-10.5,61.8,26.4,93.1
		c27.5,23.3,69.4,60.6,50.8,103.1C442.3,324,389.7,277,357.3,249.4"/>
</g>
<g>
	<path fill="#FFFFFF" d="M311.4,440.6c-0.2,0.1-0.4,0.2-0.7,0.4c0,0,5.7-21.3-14.1-29.2c-27.6-11.1-72.7-40.2-67.9-94.5
		c2-22.8,25.7-65.3,44.5-95.7c0.4-13.8,3-23.4,3-23.4s-64,92.9-67.4,131.1c-4.8,54.3,40.3,83.5,67.9,94.5
		c19.8,7.9,14.1,29.2,14.1,29.2C298.5,448.8,305.3,444.7,311.4,440.6"/>
</g>
<g>
	<path fill="#FFFFFF" d="M490.2,437.5l-353.1,46.4c-2.7,0.4-5.2-1.6-5.6-4.3l-2.3-17.3c-0.4-2.7,1.6-5.3,4.3-5.6l353.1-46.4
		c2.7-0.4,5.2,1.6,5.6,4.3l2.3,17.3C494.8,434.6,492.9,437.1,490.2,437.5"/>
</g>
<g>
	<path fill="#FFFFFF" d="M133.9,431.7l351.4,57.7c2.7,0.4,5.3-1.4,5.7-4.1l2.8-17.2c0.4-2.7-1.4-5.3-4.1-5.7l-351.4-57.7
		c-2.7-0.4-5.3,1.4-5.7,4.1l-2.8,17.2C129.3,428.7,131.2,431.3,133.9,431.7"/>
</g>
<g>
	<path fill="#FFFFFF" d="M312,579.8c-71.5,0-138.8-27.9-189.3-78.4C72.1,450.8,44.2,383.5,44.2,312c0-71.5,27.9-138.8,78.4-189.3
		C173.2,72.1,240.5,44.2,312,44.2s138.8,27.9,189.3,78.4c50.6,50.6,78.4,117.8,78.4,189.3c0,71.5-27.9,138.8-78.4,189.3
		C450.8,551.9,383.5,579.8,312,579.8z M312,46.2c-71,0-137.7,27.6-187.9,77.8C73.9,174.3,46.2,241,46.2,312
		c0,71,27.6,137.7,77.8,187.9c50.2,50.2,116.9,77.8,187.9,77.8s137.7-27.6,187.9-77.8c50.2-50.2,77.8-116.9,77.8-187.9
		c0-71-27.6-137.7-77.8-187.9C449.7,73.9,383,46.2,312,46.2z"/>
</g>
<g>
	<path fill="#FFFFFF" d="M310.8,461.3c-80.4,0-145.8-65.4-145.8-145.8s65.4-145.8,145.8-145.8s145.8,65.4,145.8,145.8
		S391.2,461.3,310.8,461.3z M310.8,175.7c-77.1,0-139.8,62.7-139.8,139.8s62.7,139.8,139.8,139.8s139.8-62.7,139.8-139.8
		S387.9,175.7,310.8,175.7z"/>
</g>
<g>
	<path fill="#FFFFFF" d="M203.7,179.4c-6.6,5.5-14.5,4.2-19.1-1.4c-9.2-11-16.4-19.6-25.6-30.6c-4.7-5.6-4.6-13.7,2-19.2
		c6.9-5.7,14.5-3.6,18.9,1.7c0.7,0.9,2.6,3.1,3.3,3.9c0.6,0.7,0.2,1.4-3.2,4.2c-2.4,2-3.5,3.2-4.3,2.3c-0.9-1-2.6-3.1-3.2-3.8
		c-0.9-1-3.4-2.4-5.3-0.8c-2.3,1.9-0.9,4.6,0.7,6.5c7.8,9.4,15.1,18.1,23,27.5c1.7,2,4,3.7,6.3,1.8c2.1-1.8,1.2-4,0.3-5.2
		c-0.9-1-1.8-2.1-3.2-3.8c-0.9-1-0.1-1.5,3.1-4.2c3.1-2.6,3.8-3,4.9-1.7c0.9,1.1,2.4,2.8,3.2,3.8
		C210.5,166.6,210.5,173.7,203.7,179.4z"/>
</g>
<g>
	<path fill="#FFFFFF" d="M240.6,155.8c-2.4,1.3-3.9,2.3-4.7,1.2c-3.2-4.4-5.2-7.4-8.3-11.6c-0.5-0.8-1.5-0.1-2.8,0.6
		c-1.6,0.8-2.5,1.1-2.2,2c2,5,3.3,8.3,5.5,13.4c0.4,1-1.5,1.9-4.2,3.3c-1.3,0.7-4.2,2.2-4.5,1.4c-8.5-23.6-14.2-39.5-22.2-61.2
		c-0.5-1.3,1.9-2.6,3.7-3.6c2.1-1.1,4.3-2.2,5.4-0.9c14.6,19.8,23.5,32,38.5,52.1C245.4,153.3,242.9,154.5,240.6,155.8z M213,122.3
		c-0.2-0.4-1.4-2.2-2-1.9c-0.4,0.2,0.5,2.4,0.8,2.7c3.1,6.8,5,11.2,7.4,16.8c0.3,0.6,0.8,0.4,2-0.2c1.1-0.6,2-0.9,1.5-1.6
		C219.1,132.1,217,128.7,213,122.3z"/>
</g>
<g>
	<path fill="#FFFFFF" d="M279.9,142.9c-4.5,1.2-4.8,1.1-5.2-0.3c-3.4-12.9-7.9-29.5-10.1-36.7c-0.6-0.7-1.3-0.2-1.3,0.7
		c0.3,5.4,0.3,10,0.2,13.3c0.1,1-0.2,1.5-1.7,1.9c-1.5,0.4-1.9,0-2.4-0.7c-1.5-2.7-3.8-6.9-6.3-11.6c-0.4-0.9-1.6-0.9-1.8,0
		c1.7,7.4,6.1,23.8,9.5,36.7c0.4,1.5,0.2,1.7-4.6,3c-4.5,1.2-4.5,1-4.8-0.4c-6.1-23-10.5-39.4-16.4-61.3c-0.4-1.6,0.2-1.6,3.8-2.6
		c4-1.1,4.7-0.8,6.4,1.9c2.6,4.3,5.1,8.1,7.6,12.1c1.8,3,3.6,5.6,4.2,5.4c0.6-0.2,0.9-3.1,0.9-6.7c0.2-5.2,0.4-9.1,0.6-14.3
		c0-3.2,0.5-3.9,4.1-4.8c4-1.1,4.8-1.2,5.2,0.3c3.9,14.7,10.1,37.8,16.3,61.2C284.7,141.4,284.8,141.5,279.9,142.9z"/>
</g>
<g>
	<path fill="#FFFFFF" d="M316.3,111.3c-3,2.8-7,3.7-10.6,3.8c-1.3,0-2.1,0.6-2,3c0.1,4.9,0.4,15.1,0.6,20.8c0,1.6-0.9,1.5-5.3,1.7
		c-4.3,0.1-4.9,0.1-4.9-2c-0.5-18.8-1.2-43.2-1.6-61.6c0-1.1,0-1.9,0.4-2.4c0.5-0.7,1.2-0.6,2.4-0.6c2.3-0.1,7.1-0.2,9.7-0.3
		c3.8-0.1,7.6,0.7,10.6,3.1c3.3,2.6,4.8,6.2,5,10.9c0.2,9.3,0.1,3.2,0.3,12.5C320.9,104,319.8,107.9,316.3,111.3z M310.2,89.9
		c-0.1-2-0.2-3.8-1.4-5.2c-0.8-0.7-1.6-1.1-3.2-1.1c-1.1,0-2.2,0.1-2.6,0.4c-0.3,0.4-0.3,0.8-0.2,1.3c0.3,9.5,0.2,8.8,0.5,18.1
		c0,1,0,1.7,0.6,2c0.5,0.1,1.1,0.1,2.1,0c1,0,2.4-0.3,3.4-1.6c1.2-1.7,1.1-3.1,1-4.9C310.4,95.5,310.3,93.5,310.2,89.9z"/>
</g>
<g>
	<path fill="#FFFFFF" d="M362.6,88.4c-2.2-0.4-7.2-1.3-9.1-1.6c-0.8-0.1-1.7-0.2-2.1,0c-0.8,0.5-0.8,1.3-1,2.5
		c-1.1,6.6-1.1,6.4-2.2,12.9c-0.1,0.8-0.4,1.9,0.1,2.5c0.5,0.6,1.2,0.6,2,0.7c1.6,0.4,4.4,0.9,5.2,1c1.3,0.2,1.3,0.7,0.6,4.8
		c-0.7,4-0.8,4.5-2.2,4.3c-0.8-0.1-3.4-0.7-5-0.9c-0.9-0.2-2-0.3-2.4-0.1c-0.9,0.4-1,1.7-1.2,2.9c-1.4,8.3-2.4,13.9-4.1,23.6
		c-0.3,1.6-1,1.4-5.8,0.5c-3.9-0.7-4.5-0.7-4.3-2.2c3.9-22.5,6.7-38.7,10.6-61.3c0.2-1.2,0.3-1.5,0.9-2.1c0.7-0.7,1.2-0.6,2.1-0.4
		c5.1,0.9,14.5,2.5,19.7,3.4c1.1,0.2,1,0.9,0.4,4.6C364.2,88.2,364,88.6,362.6,88.4z"/>
</g>
<g>
	<path fill="#FFFFFF" d="M367.1,149.3c-4.4-1.5-4.6-1.6-4.2-2.8c7.7-22.6,13.2-38.6,20.6-60.2c0.5-1.4,0.9-1.3,5.1,0.1
		c4.8,1.6,5,1.8,4.5,3.3c-5,14.5-12.7,37-20.5,59.9C372.1,151,372,151,367.1,149.3z"/>
</g>
<g>
	<path fill="#FFFFFF" d="M402.3,165.9c-4-2.2-4.4-2.3-3.5-3.8c3.7-6.7,8.5-15.3,10.6-19.2c1.6-2.9,1.9-5.8-0.2-7
		c-2.9-1.6-3.2-1.9-3.8-0.7c-4.8,8.7-7.7,13.9-12.8,23.1c-0.9,1.6-1.5,1.2-5.7-1.1c-3.4-1.9-4.1-2.3-3.1-4.1
		c9.1-16.5,21-37.8,29.9-53.9c0.5-0.8,1-1.6,1.5-1.9c0.9-0.4,1.4,0.1,2.4,0.7c1.9,1.1,6,3.3,8.2,4.6c3.6,2,6.7,5,7.8,8.8
		c1.2,3.7,0.3,7.6-1.7,11.1c-1.8,3.2-2.2,4-3.9,7.1c-1.3,2.4-2.5,3.8-4.5,4.7c-2.7,1.4-5.6,0.5-5.7,0.7c-0.2,0.3,2.4,2,2.8,4.9
		c0.3,2.1-0.1,3.7-1.4,6.1c-4.3,7.7-7.5,13.6-11.6,21C406.8,168.5,406.3,168.1,402.3,165.9z M422.1,119.4c1-1.7,1.8-3.4,1.4-5.2
		c-0.2-1-0.5-1.6-2.4-2.7c-0.7-0.4-1.3-0.7-1.9-0.5c-0.4,0.2-0.6,0.5-0.9,0.9c-4.3,7.7-4.3,7.7-6.9,12.4c-0.4,0.7-0.7,1.3-0.5,1.9
		c0.2,0.4,0.7,0.6,1.4,1c0.7,0.4,2.2,0.9,3.7,0.4c1.7-0.6,2.5-1.8,3-2.6C420.1,123,421,121.3,422.1,119.4z"/>
</g>
<g>
	<path fill="#FFFFFF" d="M431.5,188.9c-3.1-2.7-10.7-9.3-13.8-11.9c-1.2-1-2.5-1.9-2.6-2.8c-0.1-1,0.9-2,1.7-2.8
		c14.9-17.3,24.4-28.3,39.3-45.6c0.8-0.9,0.9-0.9,1.9-1.2c0.9-0.2,1.4,0.2,2.2,0.9c4,3.4,11,9.4,14.9,12.9c0.9,0.7,0.4,1.3-2.1,4.1
		c-2.8,3.2-3.2,3.7-4.1,2.9c-1.9-1.7-5.8-5-7.2-6.2c-0.6-0.5-1.5-1.2-2-1.1c-0.8,0.2-0.7,0.1-1.5,1.1c-4.2,4.8-4,4.7-8.2,9.5
		c-0.6,0.6-1.4,1.3-1.2,2.2c0.2,0.8,0.8,1.2,1.3,1.7c1.2,1.1,2.8,2.4,3.5,3c0.9,0.7,0.6,1.2-2.2,4.4c-2.6,3-3,3.5-3.9,2.7
		c-0.6-0.5-1.9-1.7-3.2-2.8c-0.7-0.6-1.6-1.2-2-1.3c-1-0.1-1.5,0.7-2.3,1.7c-5,5.8-4.3,5-9.3,10.7c-0.8,0.9-2,2.3-1.8,2.8
		c0.2,0.5,1.1,1.5,1.9,2.2c1.9,1.7,4.9,4.2,6.9,5.9c0.9,0.7,0.7,1.1-2,4.3C432.7,189.4,432.3,189.6,431.5,188.9z"/>
</g>
<g>
	<path fill="#FFFFFF" d="M262,551.9c-0.7,0.1-1.4-0.3-2-0.5c-1-0.2-0.9-3.9-1.7-4.7c-1-0.6-3,3.6-9.7,1.9
		c-9-2.3-12.4-10.2-10.6-17.1c1.8-7.2,8.5-33.3,10.3-40.6c1.7-6.7,8.3-12.4,17.5-10.1c9.4,2.4,12.4,10.6,10.7,17.3
		c-0.3,1.2-1.1,4.3-1.3,5.2c-0.2,0.9-1.2,1-6.1-0.2c-3.4-0.9-4.7-1.1-4.4-2.2c0.3-1.4,1-4.2,1.2-5.2c0.3-1.4,0.1-4.3-2.6-5
		c-2.9-0.7-4.5,2.2-5.1,4.6c-3.1,12.4-7.7,30.2-9.3,36.5c-0.6,2.5-1.1,5.6,2.3,6.5c3.1,0.8,4.3-1.7,4.6-3c0.7-2.9,2.1-8.2,3.2-12.7
		c0.2-0.9,0-1.2-0.5-1.6c-0.9-0.5-2.1-0.8-2.5-1.2c-0.3-0.5,0-1.5,0.3-3c0.4-1.6,0.7-2.7,1.1-2.8c1.5-0.6,5.8,0.4,9.6,1.5
		c3.9,1.1,4.5,1.9,4.1,3.2c-1.7,6.8-6.3,25-8,31.5C263.1,550.8,262.8,551.8,262,551.9z"/>
</g>
<g>
	<path fill="#FFFFFF" d="M303.8,556.3c-2.9-0.2-4.8-0.1-4.9-1.5c-0.5-5.6-0.6-9.5-1.1-15c0-1-1.2-0.9-2.8-1c-1.9-0.1-2.9-0.4-3,0.6
		c-0.9,5.6-1.6,9.2-2.4,15c-0.2,1.1-2.4,0.9-5.5,0.7c-1.5-0.1-5-0.3-4.8-1.2c5.3-25.8,8.9-43.1,13.7-67c0.3-1.4,3.1-1.3,5.3-1.2
		c2.5,0.2,5.1,0.4,5.4,2.1c2.2,25.8,3.5,41.5,5.9,67.8C309.4,556.8,306.5,556.5,303.8,556.3z M297.4,511.3c0-0.5,0-2.7-0.7-2.7
		c-0.5,0-0.8,2.5-0.8,2.9c-1,7.8-1.7,12.7-2.6,19.1c0,0.7,0.5,0.8,1.9,0.9c1.3,0.1,2.3,0.3,2.2-0.6
		C297.4,523.4,297.4,519.2,297.4,511.3z"/>
</g>
<g>
	<path fill="#FFFFFF" d="M348.7,553.2c-4.8,0.5-16.3,1.9-19.1,2.2c-1.4,0.2-2.8,0.3-3.3-0.2c-0.7-0.6-0.7-2.1-0.9-3.4
		c-2.7-23.8-4.6-40-7.3-63.9c-0.2-1.4,0.3-1.6,4.8-2.2c5.1-0.6,5.7-0.5,5.9,1c2.4,21.3,4.5,39.4,6.2,54.2c0.1,1.3,0.2,3,1,3.4
		c0.5,0.2,1.7,0.2,2.7,0.1c2.2-0.2,6.7-0.8,8.8-1c1.3-0.1,1.4,0.3,1.9,4.5C350,552.8,349.9,553.1,348.7,553.2z"/>
</g>
<g>
	<path fill="#FFFFFF" d="M387.6,543.4c-2.8,0.8-4.5,1.5-5.1,0.3c-2.3-5.1-3.8-8.7-6.1-13.7c-0.4-0.9-1.5-0.4-3,0
		c-1.8,0.5-2.8,0.6-2.7,1.6c1,5.5,1.7,9.2,2.8,14.9c0.2,1.1-1.9,1.6-5,2.5c-1.4,0.4-4.8,1.4-5,0.5c-3.8-26.1-6.2-43.6-9.8-67.7
		c-0.2-1.4,2.5-2.3,4.6-2.9c2.4-0.7,4.9-1.3,5.8,0.2c10.9,23.5,17.4,37.8,28.5,61.8C393.1,541.9,390.2,542.7,387.6,543.4z
		 M366.3,503.2c-0.1-0.5-1-2.5-1.6-2.3c-0.5,0.1,0,2.6,0.2,3c1.7,7.6,2.7,12.5,4.1,18.8c0.2,0.7,0.7,0.6,2.1,0.2
		c1.2-0.4,2.3-0.5,1.9-1.3C370.5,514.6,369,510.6,366.3,503.2z"/>
</g>
<g>
	<path fill="#FFFFFF" d="M312,595.5c-75.7,0-146.9-29.5-200.5-83c-53.5-53.5-83-124.7-83-200.5s29.5-146.9,83-200.5
		c53.5-53.5,124.7-83,200.5-83s146.9,29.5,200.5,83c53.5,53.5,83,124.7,83,200.5s-29.5,146.9-83,200.5
		C458.9,566,387.7,595.5,312,595.5z M312,37.5c-73.3,0-142.2,28.6-194.1,80.4C66.1,169.8,37.5,238.7,37.5,312s28.6,142.2,80.4,194.1
		c51.8,51.8,120.8,80.4,194.1,80.4c73.3,0,142.2-28.6,194.1-80.4c51.8-51.8,80.4-120.8,80.4-194.1s-28.6-142.2-80.4-194.1
		C454.2,66.1,385.3,37.5,312,37.5z"/>
</g>
<g>
	<polygon fill="#FFFFFF" points="117.3,223.9 120.7,234.9 132.3,234.9 122.7,241.4 126.6,252.6 117.3,245.6 107.9,252.6 
		111.5,241.4 102.2,234.9 114,234.9 	"/>
</g>
<g>
	<polygon fill="#FFFFFF" points="108.6,274.6 112,285.5 123.6,285.5 114,292 117.9,303.3 108.6,296.2 99.2,303.3 102.8,292 
		93.5,285.5 105.3,285.5 	"/>
</g>
<g>
	<polygon fill="#FFFFFF" points="113.3,328 116.7,338.9 128.4,338.9 118.7,345.4 122.6,356.7 113.3,349.6 103.9,356.7 107.5,345.4 
		98.2,338.9 110,338.9 	"/>
</g>
<g>
	<path fill="#FFFFFF" d="M307.2,574.9C307.2,574.9,307.2,574.9,307.2,574.9c-1.7,0-3.4-0.1-5-0.1c-0.8,0-1.5-0.7-1.4-1.6
		c0-0.8,0.7-1.5,1.6-1.4c1.6,0.1,3.3,0.1,4.9,0.1c0.8,0,1.5,0.7,1.5,1.5C308.7,574.2,308,574.9,307.2,574.9z M317.1,574.9
		c-0.8,0-1.5-0.7-1.5-1.5c0-0.8,0.6-1.5,1.5-1.5c1.6,0,3.3-0.1,4.9-0.1c0.8,0,1.5,0.6,1.6,1.4c0,0.8-0.6,1.5-1.4,1.6
		C320.5,574.8,318.8,574.8,317.1,574.9C317.1,574.9,317.1,574.9,317.1,574.9z M297.2,574.5C297.2,574.5,297.2,574.5,297.2,574.5
		c-3.4-0.2-6.7-0.4-10.1-0.8c-0.8-0.1-1.4-0.8-1.4-1.6c0.1-0.8,0.8-1.4,1.6-1.4c3.3,0.3,6.6,0.6,9.9,0.7c0.8,0,1.5,0.8,1.4,1.6
		C298.7,573.9,298,574.5,297.2,574.5z M327,574.5c-0.8,0-1.5-0.6-1.5-1.4c0-0.8,0.6-1.5,1.4-1.6c3.3-0.2,6.6-0.4,9.9-0.8
		c0.8-0.1,1.6,0.5,1.6,1.4s-0.5,1.6-1.4,1.6C333.8,574,330.5,574.3,327,574.5C327.1,574.5,327.1,574.5,327,574.5z M282.4,573.2
		c-0.1,0-0.1,0-0.2,0c-1.7-0.2-3.3-0.4-5-0.6c-0.8-0.1-1.4-0.9-1.3-1.7s0.9-1.4,1.7-1.3c1.6,0.2,3.3,0.4,4.9,0.6
		c0.8,0.1,1.4,0.8,1.3,1.7C283.8,572.7,283.1,573.2,282.4,573.2z M341.9,573.2c-0.8,0-1.4-0.6-1.5-1.3c-0.1-0.8,0.5-1.6,1.3-1.7
		c1.6-0.2,3.3-0.4,4.9-0.6c0.8-0.1,1.6,0.5,1.7,1.3c0.1,0.8-0.5,1.6-1.3,1.7c-1.6,0.2-3.3,0.4-5,0.6
		C342,573.2,342,573.2,341.9,573.2z M267.6,571.1c-0.1,0-0.2,0-0.3,0c-1.6-0.3-3.3-0.6-4.9-0.9c-0.8-0.2-1.3-0.9-1.2-1.8
		c0.2-0.8,0.9-1.3,1.8-1.2c1.6,0.3,3.2,0.6,4.9,0.9c0.8,0.1,1.4,0.9,1.2,1.7C269,570.6,268.3,571.1,267.6,571.1z M356.7,571.1
		c-0.7,0-1.3-0.5-1.5-1.2c-0.1-0.8,0.4-1.6,1.2-1.7c1.6-0.3,3.2-0.6,4.9-0.9c0.8-0.2,1.6,0.4,1.8,1.2c0.2,0.8-0.4,1.6-1.2,1.8
		c-1.6,0.3-3.3,0.6-4.9,0.9C356.8,571.1,356.7,571.1,356.7,571.1z M257.9,569.2c-0.1,0-0.2,0-0.3,0c-3.2-0.7-6.5-1.4-9.7-2.3
		c-0.8-0.2-1.3-1-1.1-1.8c0.2-0.8,1-1.3,1.8-1.1c3.2,0.8,6.4,1.6,9.6,2.2c0.8,0.2,1.3,1,1.2,1.8
		C259.2,568.8,258.6,569.2,257.9,569.2z M366.4,569.2c-0.7,0-1.3-0.5-1.5-1.2c-0.2-0.8,0.3-1.6,1.2-1.8c3.2-0.7,6.5-1.4,9.6-2.2
		c0.8-0.2,1.6,0.3,1.8,1.1c0.2,0.8-0.3,1.6-1.1,1.8c-3.2,0.8-6.5,1.6-9.7,2.3C366.6,569.2,366.5,569.2,366.4,569.2z M243.4,565.7
		c-0.1,0-0.3,0-0.4-0.1c-1.6-0.4-3.2-0.9-4.8-1.4c-0.8-0.2-1.2-1.1-1-1.9c0.2-0.8,1.1-1.2,1.9-1c1.6,0.5,3.2,0.9,4.8,1.3
		c0.8,0.2,1.3,1,1.1,1.8C244.6,565.3,244,565.7,243.4,565.7z M380.9,565.7c-0.7,0-1.3-0.4-1.4-1.1c-0.2-0.8,0.2-1.6,1-1.8
		c1.6-0.4,3.2-0.9,4.8-1.4c0.8-0.2,1.6,0.2,1.9,1c0.2,0.8-0.2,1.6-1,1.9c-1.6,0.5-3.2,0.9-4.8,1.4
		C381.2,565.6,381,565.7,380.9,565.7z M229.1,561.4c-0.2,0-0.3,0-0.5-0.1c-1.6-0.5-3.2-1.1-4.7-1.6c-0.8-0.3-1.2-1.1-0.9-1.9
		c0.3-0.8,1.1-1.2,1.9-0.9c1.6,0.6,3.1,1.1,4.7,1.6c0.8,0.3,1.2,1.1,0.9,1.9C230.3,561,229.7,561.4,229.1,561.4z M395.2,561.3
		c-0.6,0-1.2-0.4-1.4-1c-0.3-0.8,0.2-1.6,0.9-1.9c1.6-0.5,3.1-1.1,4.7-1.6c0.8-0.3,1.6,0.1,1.9,0.9c0.3,0.8-0.1,1.6-0.9,1.9
		c-1.6,0.6-3.1,1.1-4.7,1.6C395.5,561.3,395.3,561.3,395.2,561.3z M219.7,558c-0.2,0-0.4,0-0.5-0.1c-3.1-1.2-6.2-2.4-9.3-3.7
		c-0.8-0.3-1.1-1.2-0.8-2c0.3-0.8,1.2-1.1,2-0.8c3,1.3,6.1,2.5,9.2,3.7c0.8,0.3,1.2,1.2,0.9,1.9C220.9,557.6,220.3,558,219.7,558z
		 M404.5,557.9c-0.6,0-1.2-0.4-1.4-1c-0.3-0.8,0.1-1.6,0.9-1.9c3.1-1.2,6.1-2.4,9.1-3.7c0.8-0.3,1.6,0,2,0.8c0.3,0.8,0,1.6-0.8,2
		c-3,1.3-6.1,2.5-9.2,3.7C404.9,557.9,404.7,557.9,404.5,557.9z M205.9,552.3c-0.2,0-0.4,0-0.6-0.1c-1.5-0.7-3-1.4-4.6-2.1
		c-0.8-0.4-1.1-1.2-0.7-2c0.4-0.8,1.3-1.1,2-0.7c1.5,0.7,3,1.4,4.5,2.1c0.8,0.3,1.1,1.2,0.8,2C207,552,206.5,552.3,205.9,552.3z
		 M418.2,552.2c-0.6,0-1.1-0.3-1.4-0.9c-0.3-0.8,0-1.6,0.8-2c1.5-0.7,3-1.4,4.5-2.1c0.7-0.4,1.6,0,2,0.7c0.4,0.7,0,1.6-0.7,2
		c-1.5,0.7-3,1.4-4.5,2.1C418.7,552.2,418.5,552.2,418.2,552.2z M192.5,545.8c-0.2,0-0.5-0.1-0.7-0.2c-1.5-0.8-3-1.6-4.4-2.4
		c-0.7-0.4-1-1.3-0.6-2c0.4-0.7,1.3-1,2-0.6c1.4,0.8,2.9,1.6,4.4,2.3c0.7,0.4,1,1.3,0.6,2C193.5,545.5,193,545.8,192.5,545.8z
		 M431.6,545.7c-0.5,0-1.1-0.3-1.3-0.8c-0.4-0.7-0.1-1.6,0.6-2c1.5-0.8,2.9-1.5,4.4-2.3c0.7-0.4,1.6-0.1,2,0.6
		c0.4,0.7,0.1,1.6-0.6,2c-1.5,0.8-2.9,1.6-4.4,2.3C432.1,545.7,431.9,545.7,431.6,545.7z M183.7,541c-0.3,0-0.5-0.1-0.7-0.2
		c-2.9-1.6-5.8-3.4-8.6-5.1c-0.7-0.4-0.9-1.4-0.5-2.1c0.4-0.7,1.4-0.9,2.1-0.5c2.8,1.7,5.7,3.4,8.5,5.1c0.7,0.4,1,1.3,0.6,2
		C184.7,540.8,184.2,541,183.7,541z M440.3,541c-0.5,0-1-0.3-1.3-0.8c-0.4-0.7-0.2-1.6,0.6-2c2.8-1.6,5.7-3.3,8.5-5.1
		c0.7-0.4,1.6-0.2,2.1,0.5c0.4,0.7,0.2,1.6-0.5,2.1c-2.8,1.8-5.7,3.5-8.6,5.1C440.8,540.9,440.6,541,440.3,541z M170.9,533.3
		c-0.3,0-0.6-0.1-0.8-0.2c-1.4-0.9-2.8-1.8-4.2-2.8c-0.7-0.5-0.9-1.4-0.4-2.1c0.5-0.7,1.4-0.9,2.1-0.4c1.4,0.9,2.7,1.8,4.1,2.7
		c0.7,0.5,0.9,1.4,0.4,2.1C171.9,533,171.4,533.3,170.9,533.3z M453.1,533.3c-0.5,0-1-0.2-1.3-0.7c-0.5-0.7-0.3-1.6,0.4-2.1
		c1.4-0.9,2.8-1.8,4.1-2.7c0.7-0.5,1.6-0.3,2.1,0.4c0.5,0.7,0.3,1.6-0.4,2.1c-1.4,0.9-2.8,1.8-4.2,2.8
		C453.6,533.2,453.3,533.3,453.1,533.3z M465.3,524.8c-0.5,0-0.9-0.2-1.2-0.6c-0.5-0.7-0.3-1.6,0.3-2.1c1.3-1,2.6-2,4-3
		c0.7-0.5,1.6-0.4,2.1,0.3c0.5,0.7,0.4,1.6-0.3,2.1c-1.3,1-2.7,2-4,3C465.9,524.7,465.6,524.8,465.3,524.8z M158.7,524.8
		c-0.3,0-0.6-0.1-0.9-0.3c-1.3-1-2.7-2-4-3c-0.7-0.5-0.8-1.4-0.3-2.1c0.5-0.7,1.4-0.8,2.1-0.3c1.3,1,2.6,2,4,3
		c0.7,0.5,0.8,1.4,0.3,2.1C159.6,524.6,159.1,524.8,158.7,524.8z M473.2,518.8c-0.4,0-0.9-0.2-1.2-0.6c-0.5-0.6-0.4-1.6,0.2-2.1
		c2.6-2,5.1-4.1,7.6-6.3c0.6-0.5,1.6-0.5,2.1,0.2c0.5,0.6,0.5,1.6-0.2,2.1c-2.5,2.2-5.1,4.3-7.7,6.4
		C473.9,518.7,473.5,518.8,473.2,518.8z M150.8,518.8c-0.3,0-0.7-0.1-0.9-0.3c-2.6-2.1-5.2-4.2-7.7-6.4c-0.6-0.5-0.7-1.5-0.2-2.1
		c0.5-0.6,1.5-0.7,2.1-0.2c2.5,2.1,5,4.2,7.6,6.3c0.6,0.5,0.8,1.5,0.2,2.1C151.6,518.6,151.2,518.8,150.8,518.8z M484.6,509.2
		c-0.4,0-0.8-0.2-1.1-0.5c-0.6-0.6-0.5-1.6,0.1-2.1c1.2-1.1,2.4-2.2,3.7-3.3c0.6-0.6,1.6-0.5,2.1,0.1c0.6,0.6,0.5,1.6-0.1,2.1
		c-1.2,1.1-2.5,2.3-3.7,3.4C485.3,509.1,485,509.2,484.6,509.2z M139.3,509.1c-0.4,0-0.7-0.1-1-0.4c-1.2-1.1-2.5-2.2-3.7-3.4
		c-0.6-0.6-0.6-1.5-0.1-2.1c0.6-0.6,1.5-0.6,2.1-0.1c1.2,1.1,2.4,2.2,3.7,3.3c0.6,0.6,0.7,1.5,0.1,2.1
		C140.2,509,139.8,509.1,139.3,509.1z M495.4,499c-0.4,0-0.8-0.1-1.1-0.4c-0.6-0.6-0.6-1.5,0-2.1c1.2-1.2,2.3-2.3,3.5-3.5
		c0.6-0.6,1.5-0.6,2.1,0c0.6,0.6,0.6,1.5,0,2.1c-1.2,1.2-2.3,2.4-3.5,3.6C496.2,498.8,495.8,499,495.4,499z M128.5,498.9
		c-0.4,0-0.8-0.1-1.1-0.4c-1.2-1.2-2.3-2.4-3.5-3.6c-0.6-0.6-0.6-1.5,0-2.1c0.6-0.6,1.5-0.6,2.1,0c1.1,1.2,2.3,2.4,3.5,3.5
		c0.6,0.6,0.6,1.5,0,2.1C129.3,498.8,128.9,498.9,128.5,498.9z M502.3,491.8c-0.4,0-0.7-0.1-1-0.4c-0.6-0.6-0.6-1.5-0.1-2.1
		c2.2-2.4,4.4-4.9,6.6-7.4c0.5-0.6,1.5-0.7,2.1-0.2c0.6,0.5,0.7,1.5,0.2,2.1c-2.2,2.5-4.4,5-6.7,7.5
		C503.2,491.6,502.7,491.8,502.3,491.8z M121.6,491.8c-0.4,0-0.8-0.2-1.1-0.5c-2.3-2.4-4.5-4.9-6.7-7.5c-0.5-0.6-0.5-1.6,0.2-2.1
		c0.6-0.5,1.6-0.5,2.1,0.2c2.1,2.5,4.3,5,6.6,7.4c0.6,0.6,0.5,1.6-0.1,2.1C122.3,491.6,122,491.8,121.6,491.8z M512.2,480.6
		c-0.3,0-0.7-0.1-1-0.3c-0.6-0.5-0.7-1.5-0.2-2.1c1-1.3,2.1-2.6,3.1-3.8c0.5-0.6,1.5-0.8,2.1-0.2c0.6,0.5,0.8,1.5,0.2,2.1
		c-1,1.3-2.1,2.6-3.1,3.9C513,480.4,512.6,480.6,512.2,480.6z M111.8,480.5c-0.4,0-0.9-0.2-1.2-0.5c-1.1-1.3-2.1-2.6-3.1-3.9
		c-0.5-0.6-0.4-1.6,0.2-2.1c0.7-0.5,1.6-0.4,2.1,0.2c1,1.3,2.1,2.6,3.1,3.8c0.5,0.6,0.4,1.6-0.2,2.1
		C112.5,480.4,112.1,480.5,111.8,480.5z M521.3,468.8c-0.3,0-0.6-0.1-0.9-0.3c-0.7-0.5-0.8-1.4-0.3-2.1c1-1.3,1.9-2.7,2.9-4
		c0.5-0.7,1.4-0.8,2.1-0.4c0.7,0.5,0.8,1.4,0.4,2.1c-1,1.4-1.9,2.7-2.9,4.1C522.3,468.6,521.8,468.8,521.3,468.8z M102.6,468.8
		c-0.5,0-0.9-0.2-1.2-0.6c-1-1.3-2-2.7-2.9-4.1c-0.5-0.7-0.3-1.6,0.4-2.1c0.7-0.5,1.6-0.3,2.1,0.4c0.9,1.3,1.9,2.7,2.9,4
		c0.5,0.7,0.3,1.6-0.3,2.1C103.3,468.7,102.9,468.8,102.6,468.8z M527.1,460.7c-0.3,0-0.6-0.1-0.8-0.3c-0.7-0.5-0.9-1.4-0.4-2.1
		c1.8-2.7,3.7-5.5,5.4-8.3c0.4-0.7,1.4-0.9,2.1-0.5c0.7,0.4,0.9,1.4,0.5,2.1c-1.7,2.8-3.6,5.6-5.5,8.4
		C528,460.4,527.6,460.7,527.1,460.7z M96.9,460.7c-0.5,0-1-0.2-1.2-0.7c-1.9-2.7-3.7-5.6-5.4-8.4c-0.4-0.7-0.2-1.6,0.5-2.1
		c0.7-0.4,1.6-0.2,2.1,0.5c1.7,2.8,3.5,5.6,5.4,8.3c0.5,0.7,0.3,1.6-0.4,2.1C97.5,460.6,97.2,460.7,96.9,460.7z M88.9,448.1
		c-0.5,0-1-0.3-1.3-0.7c-0.9-1.4-1.7-2.9-2.5-4.3c-0.4-0.7-0.2-1.6,0.6-2c0.7-0.4,1.6-0.2,2,0.6c0.8,1.4,1.6,2.8,2.5,4.3
		c0.4,0.7,0.2,1.6-0.5,2.1C89.5,448,89.2,448.1,88.9,448.1z M535.1,448.1c-0.3,0-0.5-0.1-0.8-0.2c-0.7-0.4-0.9-1.3-0.5-2.1
		c0.8-1.4,1.7-2.8,2.5-4.3c0.4-0.7,1.3-1,2-0.6c0.7,0.4,1,1.3,0.6,2c-0.8,1.5-1.7,2.9-2.5,4.3C536.1,447.8,535.6,448.1,535.1,448.1z
		 M81.7,435.1c-0.5,0-1.1-0.3-1.3-0.8c-0.8-1.5-1.5-3-2.3-4.4c-0.4-0.7-0.1-1.6,0.7-2c0.7-0.4,1.6-0.1,2,0.7
		c0.7,1.5,1.5,2.9,2.2,4.4c0.4,0.7,0.1,1.6-0.6,2C82.1,435.1,81.9,435.1,81.7,435.1z M542.4,435c-0.2,0-0.5-0.1-0.7-0.2
		c-0.7-0.4-1-1.3-0.6-2c0.8-1.5,1.5-2.9,2.2-4.4c0.4-0.7,1.3-1,2-0.7c0.7,0.4,1,1.3,0.7,2c-0.7,1.5-1.5,3-2.3,4.5
		C543.4,434.7,542.9,435,542.4,435z M77.3,426.2c-0.6,0-1.1-0.3-1.4-0.9c-1.4-3-2.8-6.1-4.1-9.1c-0.3-0.8,0-1.6,0.8-2
		c0.8-0.3,1.6,0,2,0.8c1.3,3,2.6,6,4,9c0.4,0.7,0,1.6-0.7,2C77.7,426.2,77.5,426.2,77.3,426.2z M546.8,426.1c-0.2,0-0.4,0-0.6-0.1
		c-0.7-0.4-1.1-1.2-0.7-2c1.4-3,2.8-6,4.1-9c0.3-0.8,1.2-1.1,2-0.8c0.8,0.3,1.1,1.2,0.8,2c-1.3,3-2.7,6.1-4.1,9.1
		C547.9,425.8,547.4,426.1,546.8,426.1z M71.3,412.6c-0.6,0-1.2-0.4-1.4-0.9c-0.6-1.5-1.2-3.1-1.8-4.7c-0.3-0.8,0.1-1.6,0.9-1.9
		c0.8-0.3,1.6,0.1,1.9,0.9c0.6,1.5,1.2,3.1,1.8,4.6c0.3,0.8-0.1,1.6-0.8,2C71.7,412.6,71.5,412.6,71.3,412.6z M552.8,412.4
		c-0.2,0-0.4,0-0.6-0.1c-0.8-0.3-1.1-1.2-0.8-2c0.6-1.5,1.2-3.1,1.8-4.6c0.3-0.8,1.2-1.2,1.9-0.9c0.8,0.3,1.2,1.2,0.9,1.9
		c-0.6,1.6-1.2,3.1-1.8,4.7C553.9,412.1,553.4,412.4,552.8,412.4z M66.1,398.6c-0.6,0-1.2-0.4-1.4-1c-0.5-1.6-1.1-3.2-1.6-4.8
		c-0.2-0.8,0.2-1.6,1-1.9c0.8-0.3,1.6,0.2,1.9,1c0.5,1.6,1,3.1,1.5,4.7c0.3,0.8-0.2,1.6-0.9,1.9C66.4,398.6,66.3,398.6,66.1,398.6z
		 M558,398.4c-0.2,0-0.3,0-0.5-0.1c-0.8-0.3-1.2-1.1-0.9-1.9c0.5-1.6,1-3.1,1.5-4.7c0.2-0.8,1.1-1.2,1.9-1c0.8,0.2,1.2,1.1,1,1.9
		c-0.5,1.6-1,3.2-1.6,4.8C559.2,398,558.6,398.4,558,398.4z M63.1,389.2c-0.6,0-1.2-0.4-1.4-1.1c-0.9-3.2-1.8-6.4-2.7-9.6
		c-0.2-0.8,0.3-1.6,1.1-1.8c0.8-0.2,1.6,0.3,1.8,1.1c0.8,3.2,1.7,6.4,2.6,9.5c0.2,0.8-0.2,1.6-1,1.9
		C63.4,389.2,63.2,389.2,63.1,389.2z M561,388.9c-0.1,0-0.3,0-0.4-0.1c-0.8-0.2-1.2-1.1-1-1.9c0.9-3.1,1.8-6.3,2.6-9.5
		c0.2-0.8,1-1.3,1.8-1.1c0.8,0.2,1.3,1,1.1,1.8c-0.8,3.2-1.7,6.5-2.6,9.6C562.2,388.5,561.6,388.9,561,388.9z M59.3,374.8
		c-0.7,0-1.3-0.5-1.5-1.2c-0.4-1.6-0.7-3.2-1.1-4.9c-0.2-0.8,0.3-1.6,1.2-1.8c0.8-0.2,1.6,0.3,1.8,1.2c0.3,1.6,0.7,3.2,1.1,4.8
		c0.2,0.8-0.3,1.6-1.1,1.8C59.5,374.7,59.4,374.8,59.3,374.8z M564.8,374.5c-0.1,0-0.2,0-0.3,0c-0.8-0.2-1.3-1-1.1-1.8
		c0.4-1.6,0.7-3.2,1.1-4.8c0.2-0.8,1-1.3,1.8-1.2c0.8,0.2,1.3,1,1.2,1.8c-0.3,1.6-0.7,3.3-1.1,4.9
		C566.1,374,565.5,374.5,564.8,374.5z M56.3,360.1c-0.7,0-1.3-0.5-1.5-1.2c-0.3-1.6-0.6-3.3-0.8-4.9c-0.1-0.8,0.4-1.6,1.3-1.7
		c0.8-0.1,1.6,0.4,1.7,1.3c0.3,1.6,0.5,3.3,0.8,4.9c0.1,0.8-0.4,1.6-1.2,1.7C56.5,360.1,56.4,360.1,56.3,360.1z M567.8,359.9
		c-0.1,0-0.2,0-0.3,0c-0.8-0.1-1.4-0.9-1.2-1.7c0.3-1.6,0.5-3.2,0.8-4.9c0.1-0.8,0.9-1.4,1.7-1.3c0.8,0.1,1.4,0.9,1.3,1.7
		c-0.3,1.7-0.5,3.3-0.8,4.9C569.1,359.4,568.5,359.9,567.8,359.9z M54.8,350.3c-0.7,0-1.4-0.5-1.5-1.3c-0.4-3.3-0.8-6.6-1.1-9.9
		c-0.1-0.8,0.5-1.6,1.3-1.6c0.8-0.1,1.6,0.5,1.6,1.3c0.3,3.3,0.7,6.6,1.1,9.8c0.1,0.8-0.5,1.6-1.3,1.7
		C54.9,350.3,54.8,350.3,54.8,350.3z M569.3,350c-0.1,0-0.1,0-0.2,0c-0.8-0.1-1.4-0.9-1.3-1.7c0.4-3.2,0.8-6.5,1.1-9.8
		c0.1-0.8,0.8-1.4,1.6-1.4c0.8,0.1,1.4,0.8,1.4,1.6c-0.3,3.3-0.7,6.7-1.1,9.9C570.6,349.5,570,350,569.3,350z M53.2,335.5
		c-0.8,0-1.4-0.6-1.5-1.4c-0.1-1.7-0.2-3.3-0.3-5c0-0.8,0.6-1.5,1.4-1.6c0.9-0.1,1.5,0.6,1.6,1.4c0.1,1.6,0.2,3.3,0.3,4.9
		c0.1,0.8-0.6,1.5-1.4,1.6C53.3,335.5,53.3,335.5,53.2,335.5z M570.8,335.2c0,0-0.1,0-0.1,0c-0.8-0.1-1.4-0.8-1.4-1.6
		c0.1-1.6,0.2-3.3,0.3-4.9c0-0.8,0.7-1.4,1.6-1.4c0.8,0,1.5,0.8,1.4,1.6c-0.1,1.7-0.2,3.3-0.3,5
		C572.2,334.6,571.6,335.2,570.8,335.2z M52.5,320.6c-0.8,0-1.5-0.7-1.5-1.5c0-1.7-0.1-3.3-0.1-5c0-0.8,0.7-1.5,1.5-1.5c0,0,0,0,0,0
		c0.8,0,1.5,0.7,1.5,1.5c0,1.7,0,3.3,0.1,4.9C54,319.9,53.4,320.6,52.5,320.6C52.5,320.6,52.5,320.6,52.5,320.6z M571.5,320.3
		C571.5,320.3,571.5,320.3,571.5,320.3c-0.9,0-1.5-0.7-1.5-1.5c0-1.6,0-3.3,0-4.9l0-0.6c0-0.8,0.7-1.5,1.5-1.5
		c0.8,0,1.5,0.7,1.5,1.5l0,0.6c0,1.7,0,3.3,0,5C573,319.7,572.3,320.3,571.5,320.3z M52.5,310.7C52.5,310.7,52.5,310.7,52.5,310.7
		c-0.9,0-1.5-0.7-1.5-1.5c0.1-3.3,0.2-6.7,0.4-10c0-0.8,0.7-1.4,1.6-1.4c0.8,0,1.5,0.8,1.4,1.6c-0.2,3.3-0.3,6.6-0.4,9.9
		C54,310,53.3,310.7,52.5,310.7z M571.5,309.8c-0.8,0-1.5-0.7-1.5-1.5c-0.1-3.3-0.2-6.6-0.4-9.9c0-0.8,0.6-1.5,1.4-1.6
		c0.9-0.1,1.5,0.6,1.6,1.4c0.2,3.3,0.3,6.7,0.4,10C573,309.1,572.4,309.8,571.5,309.8C571.5,309.8,571.5,309.8,571.5,309.8z
		 M53.2,295.8c0,0-0.1,0-0.1,0c-0.8-0.1-1.4-0.8-1.4-1.6c0.1-1.7,0.3-3.3,0.4-5c0.1-0.8,0.8-1.4,1.6-1.4c0.8,0.1,1.4,0.8,1.4,1.6
		c-0.2,1.6-0.3,3.3-0.4,4.9C54.6,295.2,54,295.8,53.2,295.8z M570.8,294.9c-0.8,0-1.4-0.6-1.5-1.4c-0.1-1.6-0.3-3.3-0.4-4.9
		c-0.1-0.8,0.5-1.6,1.3-1.6c0.8-0.1,1.6,0.5,1.6,1.3c0.2,1.7,0.3,3.3,0.4,5c0.1,0.8-0.6,1.5-1.4,1.6
		C570.8,294.9,570.8,294.9,570.8,294.9z M54.7,280.9c-0.1,0-0.1,0-0.2,0c-0.8-0.1-1.4-0.9-1.3-1.7c0.2-1.7,0.5-3.3,0.7-5
		c0.1-0.8,0.9-1.4,1.7-1.3c0.8,0.1,1.4,0.9,1.3,1.7c-0.2,1.6-0.5,3.3-0.7,4.9C56.1,280.4,55.4,280.9,54.7,280.9z M569.2,280.1
		c-0.7,0-1.4-0.5-1.5-1.3c-0.2-1.6-0.5-3.3-0.7-4.9c-0.1-0.8,0.4-1.6,1.3-1.7c0.8-0.1,1.6,0.4,1.7,1.3c0.3,1.6,0.5,3.3,0.7,4.9
		c0.1,0.8-0.5,1.6-1.3,1.7C569.3,280.1,569.2,280.1,569.2,280.1z M56.2,271.1c-0.1,0-0.2,0-0.3,0c-0.8-0.1-1.4-0.9-1.2-1.7
		c0.6-3.3,1.2-6.6,1.9-9.8c0.2-0.8,1-1.3,1.8-1.2c0.8,0.2,1.3,1,1.2,1.8c-0.7,3.2-1.3,6.5-1.9,9.7C57.6,270.6,56.9,271.1,56.2,271.1
		z M567.7,270.3c-0.7,0-1.3-0.5-1.5-1.2c-0.6-3.2-1.2-6.5-1.9-9.7c-0.2-0.8,0.3-1.6,1.2-1.8c0.8-0.2,1.6,0.3,1.8,1.2
		c0.7,3.2,1.3,6.5,1.9,9.8c0.1,0.8-0.4,1.6-1.2,1.7C567.8,270.3,567.7,270.3,567.7,270.3z M59.1,256.5c-0.1,0-0.2,0-0.3,0
		c-0.8-0.2-1.3-1-1.1-1.8c0.4-1.6,0.8-3.2,1.2-4.9c0.2-0.8,1-1.3,1.8-1.1c0.8,0.2,1.3,1,1.1,1.8c-0.4,1.6-0.8,3.2-1.2,4.8
		C60.4,256,59.8,256.5,59.1,256.5z M564.7,255.7c-0.7,0-1.3-0.5-1.5-1.2c-0.4-1.6-0.8-3.2-1.2-4.8c-0.2-0.8,0.3-1.6,1.1-1.8
		c0.8-0.2,1.6,0.3,1.8,1.1c0.4,1.6,0.8,3.2,1.2,4.9c0.2,0.8-0.3,1.6-1.1,1.8C564.9,255.6,564.8,255.7,564.7,255.7z M62.9,242.1
		c-0.1,0-0.3,0-0.4-0.1c-0.8-0.2-1.2-1.1-1-1.9c0.5-1.6,1-3.2,1.5-4.8c0.2-0.8,1.1-1.2,1.9-1c0.8,0.2,1.2,1.1,1,1.9
		c-0.5,1.6-1,3.1-1.4,4.7C64.2,241.6,63.6,242.1,62.9,242.1z M560.8,241.3c-0.6,0-1.2-0.4-1.4-1.1c-0.5-1.6-1-3.2-1.5-4.7
		c-0.3-0.8,0.2-1.6,1-1.9c0.8-0.3,1.6,0.2,1.9,1c0.5,1.6,1,3.2,1.5,4.8c0.2,0.8-0.2,1.6-1,1.9C561.1,241.2,561,241.3,560.8,241.3z
		 M65.9,232.6c-0.2,0-0.3,0-0.5-0.1c-0.8-0.3-1.2-1.1-0.9-1.9c1.1-3.2,2.2-6.3,3.4-9.4c0.3-0.8,1.2-1.2,1.9-0.9
		c0.8,0.3,1.2,1.2,0.9,1.9c-1.2,3.1-2.3,6.2-3.3,9.3C67.1,232.2,66.6,232.6,65.9,232.6z M557.8,231.8c-0.6,0-1.2-0.4-1.4-1
		c-1.1-3.1-2.2-6.2-3.4-9.3c-0.3-0.8,0.1-1.6,0.9-1.9c0.8-0.3,1.6,0.1,1.9,0.9c1.2,3.1,2.3,6.3,3.4,9.4c0.3,0.8-0.2,1.6-0.9,1.9
		C558.1,231.8,558,231.8,557.8,231.8z M71.1,218.5c-0.2,0-0.4,0-0.6-0.1c-0.8-0.3-1.1-1.2-0.8-2c0.6-1.6,1.3-3.1,1.9-4.6
		c0.3-0.8,1.2-1.1,2-0.8c0.8,0.3,1.1,1.2,0.8,2c-0.6,1.5-1.3,3-1.9,4.6C72.3,218.2,71.7,218.5,71.1,218.5z M552.6,217.8
		c-0.6,0-1.2-0.4-1.4-0.9c-0.6-1.5-1.2-3-1.9-4.5c-0.3-0.8,0-1.6,0.8-2c0.8-0.3,1.6,0,2,0.8c0.7,1.5,1.3,3.1,1.9,4.6
		c0.3,0.8-0.1,1.6-0.8,2C553,217.8,552.8,217.8,552.6,217.8z M77.1,204.8c-0.2,0-0.4,0-0.6-0.1c-0.7-0.4-1.1-1.2-0.7-2
		c0.7-1.5,1.4-3,2.2-4.5c0.4-0.7,1.3-1,2-0.7c0.7,0.4,1,1.3,0.7,2c-0.7,1.5-1.5,3-2.2,4.5C78.2,204.5,77.6,204.8,77.1,204.8z
		 M546.6,204.2c-0.6,0-1.1-0.3-1.4-0.9c-0.7-1.5-1.4-3-2.2-4.4c-0.4-0.7-0.1-1.6,0.7-2c0.7-0.4,1.6-0.1,2,0.7c0.7,1.5,1.5,3,2.2,4.5
		c0.4,0.7,0,1.6-0.7,2C547.1,204.1,546.8,204.2,546.6,204.2z M81.5,195.9c-0.2,0-0.5-0.1-0.7-0.2c-0.7-0.4-1-1.3-0.6-2
		c1.5-3,3.1-5.9,4.8-8.8c0.4-0.7,1.3-1,2-0.6c0.7,0.4,1,1.3,0.6,2c-1.6,2.8-3.2,5.8-4.7,8.7C82.6,195.6,82,195.9,81.5,195.9z
		 M542.2,195.3c-0.5,0-1.1-0.3-1.3-0.8c-1.5-2.9-3.1-5.8-4.7-8.7c-0.4-0.7-0.2-1.6,0.6-2c0.7-0.4,1.6-0.2,2,0.6
		c1.6,2.9,3.3,5.8,4.8,8.8c0.4,0.7,0.1,1.6-0.6,2C542.7,195.3,542.4,195.3,542.2,195.3z M88.8,182.9c-0.3,0-0.5-0.1-0.8-0.2
		c-0.7-0.4-0.9-1.3-0.5-2.1c0.9-1.4,1.7-2.9,2.6-4.3c0.4-0.7,1.4-0.9,2.1-0.5c0.7,0.4,0.9,1.4,0.5,2.1c-0.9,1.4-1.7,2.8-2.6,4.2
		C89.8,182.6,89.3,182.9,88.8,182.9z M534.9,182.3c-0.5,0-1-0.3-1.3-0.7c-0.8-1.4-1.7-2.8-2.6-4.2c-0.4-0.7-0.2-1.6,0.5-2.1
		c0.7-0.4,1.6-0.2,2.1,0.5c0.9,1.4,1.7,2.8,2.6,4.3c0.4,0.7,0.2,1.6-0.5,2.1C535.5,182.3,535.2,182.3,534.9,182.3z M96.8,170.2
		c-0.3,0-0.6-0.1-0.8-0.3c-0.7-0.5-0.9-1.4-0.4-2.1c0.9-1.4,1.9-2.8,2.8-4.1c0.5-0.7,1.4-0.8,2.1-0.4c0.7,0.5,0.8,1.4,0.4,2.1
		c-0.9,1.3-1.9,2.7-2.8,4.1C97.7,170,97.2,170.2,96.8,170.2z M526.9,169.8c-0.5,0-1-0.2-1.2-0.7c-0.9-1.4-1.9-2.7-2.8-4.1
		c-0.5-0.7-0.3-1.6,0.4-2.1c0.7-0.5,1.6-0.3,2.1,0.4c1,1.4,1.9,2.7,2.8,4.1c0.5,0.7,0.3,1.6-0.4,2.1
		C527.5,169.7,527.2,169.8,526.9,169.8z M102.5,162.1c-0.3,0-0.6-0.1-0.9-0.3c-0.7-0.5-0.8-1.4-0.3-2.1c2-2.7,4-5.4,6.1-8
		c0.5-0.6,1.5-0.8,2.1-0.2c0.6,0.5,0.8,1.5,0.2,2.1c-2,2.6-4.1,5.2-6,7.9C103.4,161.9,102.9,162.1,102.5,162.1z M521.2,161.7
		c-0.5,0-0.9-0.2-1.2-0.6c-1.9-2.6-4-5.3-6-7.8c-0.5-0.6-0.4-1.6,0.2-2.1c0.7-0.5,1.6-0.4,2.1,0.2c2.1,2.6,4.1,5.3,6.1,7.9
		c0.5,0.7,0.3,1.6-0.3,2.1C521.8,161.6,521.5,161.7,521.2,161.7z M111.6,150.3c-0.3,0-0.7-0.1-1-0.3c-0.6-0.5-0.7-1.5-0.2-2.1
		c1.1-1.3,2.1-2.6,3.2-3.8c0.5-0.6,1.5-0.7,2.1-0.2c0.6,0.5,0.7,1.5,0.2,2.1c-1.1,1.3-2.1,2.5-3.2,3.8
		C112.5,150.1,112.1,150.3,111.6,150.3z M512,149.9c-0.4,0-0.9-0.2-1.2-0.5c-1-1.3-2.1-2.5-3.2-3.8c-0.5-0.6-0.5-1.6,0.2-2.1
		c0.6-0.5,1.6-0.5,2.1,0.2c1.1,1.3,2.2,2.5,3.2,3.8c0.5,0.6,0.4,1.6-0.2,2.1C512.7,149.8,512.4,149.9,512,149.9z M121.5,139.1
		c-0.4,0-0.7-0.1-1-0.4c-0.6-0.6-0.6-1.5-0.1-2.1c1.1-1.2,2.3-2.4,3.4-3.6c0.6-0.6,1.5-0.6,2.1,0c0.6,0.6,0.6,1.5,0,2.1
		c-1.1,1.2-2.3,2.4-3.4,3.6C122.3,138.9,121.9,139.1,121.5,139.1z M502.2,138.7c-0.4,0-0.8-0.2-1.1-0.5c-1.1-1.2-2.3-2.4-3.4-3.6
		c-0.6-0.6-0.6-1.5,0-2.1c0.6-0.6,1.5-0.6,2.1,0c1.2,1.2,2.3,2.4,3.4,3.6c0.6,0.6,0.5,1.6-0.1,2.1
		C502.9,138.6,502.6,138.7,502.2,138.7z M128.3,131.9c-0.4,0-0.8-0.1-1.1-0.4c-0.6-0.6-0.6-1.5,0-2.1c2.3-2.4,4.8-4.7,7.2-6.9
		c0.6-0.6,1.6-0.5,2.1,0.1c0.6,0.6,0.5,1.6-0.1,2.1c-2.4,2.2-4.8,4.5-7.1,6.9C129.1,131.8,128.7,131.9,128.3,131.9z M495.3,131.6
		c-0.4,0-0.8-0.1-1.1-0.4c-2.3-2.3-4.7-4.6-7.1-6.8c-0.6-0.6-0.6-1.5-0.1-2.1c0.6-0.6,1.5-0.6,2.1-0.1c2.4,2.2,4.9,4.6,7.2,6.9
		c0.6,0.6,0.6,1.5,0,2.1C496.1,131.4,495.7,131.6,495.3,131.6z M139.2,121.7c-0.4,0-0.8-0.2-1.1-0.5c-0.6-0.6-0.5-1.6,0.1-2.1
		c1.2-1.1,2.5-2.2,3.8-3.3c0.6-0.5,1.6-0.5,2.1,0.2c0.5,0.6,0.5,1.6-0.2,2.1c-1.2,1.1-2.5,2.2-3.7,3.3
		C139.9,121.6,139.5,121.7,139.2,121.7z M484.4,121.4c-0.4,0-0.7-0.1-1-0.4c-1.2-1.1-2.5-2.2-3.7-3.3c-0.6-0.5-0.7-1.5-0.2-2.1
		c0.5-0.6,1.5-0.7,2.1-0.2c1.3,1.1,2.5,2.2,3.8,3.3c0.6,0.6,0.7,1.5,0.1,2.1C485.3,121.2,484.9,121.4,484.4,121.4z M150.6,112.1
		c-0.4,0-0.9-0.2-1.2-0.6c-0.5-0.6-0.4-1.6,0.2-2.1c1.3-1,2.6-2.1,3.9-3.1c0.7-0.5,1.6-0.4,2.1,0.3c0.5,0.7,0.4,1.6-0.3,2.1
		c-1.3,1-2.6,2-3.9,3C151.2,112,150.9,112.1,150.6,112.1z M473,111.8c-0.3,0-0.7-0.1-0.9-0.3c-1.3-1-2.6-2-3.9-3
		c-0.7-0.5-0.8-1.4-0.3-2.1c0.5-0.7,1.4-0.8,2.1-0.3c1.3,1,2.6,2,4,3.1c0.6,0.5,0.8,1.5,0.2,2.1C473.9,111.6,473.5,111.8,473,111.8z
		 M158.5,106.1c-0.5,0-0.9-0.2-1.2-0.6c-0.5-0.7-0.3-1.6,0.3-2.1c2.7-2,5.4-3.9,8.2-5.8c0.7-0.5,1.6-0.3,2.1,0.4
		c0.5,0.7,0.3,1.6-0.4,2.1c-2.7,1.8-5.4,3.8-8.1,5.7C159.1,106,158.8,106.1,158.5,106.1z M465.1,105.7c-0.3,0-0.6-0.1-0.9-0.3
		c-2.6-1.9-5.4-3.9-8.1-5.7c-0.7-0.5-0.9-1.4-0.4-2.1c0.5-0.7,1.4-0.9,2.1-0.4c2.8,1.9,5.5,3.8,8.2,5.8c0.7,0.5,0.8,1.4,0.3,2.1
		C466,105.5,465.6,105.7,465.1,105.7z M170.7,97.6c-0.5,0-1-0.2-1.3-0.7c-0.5-0.7-0.3-1.6,0.4-2.1c1.4-0.9,2.8-1.8,4.2-2.7
		c0.7-0.4,1.6-0.2,2.1,0.5c0.4,0.7,0.2,1.6-0.5,2.1c-1.4,0.9-2.8,1.8-4.2,2.6C171.3,97.5,171,97.6,170.7,97.6z M452.8,97.3
		c-0.3,0-0.6-0.1-0.8-0.2c-1.4-0.9-2.8-1.8-4.2-2.6c-0.7-0.4-0.9-1.4-0.5-2.1c0.4-0.7,1.4-0.9,2.1-0.5c1.4,0.9,2.8,1.8,4.2,2.7
		c0.7,0.4,0.9,1.4,0.4,2.1C453.8,97,453.3,97.3,452.8,97.3z M183.4,89.8c-0.5,0-1-0.3-1.3-0.8c-0.4-0.7-0.2-1.6,0.6-2
		c1.4-0.8,2.9-1.6,4.4-2.4c0.7-0.4,1.6-0.1,2,0.6c0.4,0.7,0.1,1.6-0.6,2c-1.4,0.8-2.9,1.6-4.3,2.4C183.9,89.8,183.7,89.8,183.4,89.8
		z M440,89.5c-0.3,0-0.5-0.1-0.7-0.2c-1.4-0.8-2.9-1.6-4.3-2.4c-0.7-0.4-1-1.3-0.6-2c0.4-0.7,1.3-1,2-0.6c1.5,0.8,2.9,1.6,4.4,2.4
		c0.7,0.4,1,1.3,0.6,2C441.1,89.3,440.6,89.5,440,89.5z M192.1,85.1c-0.5,0-1.1-0.3-1.3-0.8c-0.4-0.7-0.1-1.6,0.6-2
		c2.9-1.5,6-3,8.9-4.4c0.7-0.4,1.6,0,2,0.7c0.4,0.7,0,1.6-0.7,2c-2.9,1.4-5.9,2.9-8.8,4.4C192.6,85,192.4,85.1,192.1,85.1z
		 M431.3,84.8c-0.2,0-0.5-0.1-0.7-0.2c-2.9-1.5-5.9-3-8.9-4.4c-0.7-0.4-1.1-1.2-0.7-2c0.4-0.8,1.2-1.1,2-0.7c3,1.4,6,2.9,9,4.4
		c0.7,0.4,1,1.3,0.6,2C432.4,84.5,431.8,84.8,431.3,84.8z M205.5,78.6c-0.6,0-1.1-0.3-1.4-0.9c-0.3-0.8,0-1.6,0.8-2
		c1.5-0.7,3-1.3,4.6-2c0.8-0.3,1.6,0,2,0.8c0.3,0.8,0,1.6-0.8,2c-1.5,0.6-3,1.3-4.5,2C205.9,78.5,205.7,78.6,205.5,78.6z
		 M417.8,78.3c-0.2,0-0.4,0-0.6-0.1c-1.5-0.7-3-1.3-4.5-2c-0.8-0.3-1.1-1.2-0.8-2c0.3-0.8,1.2-1.1,2-0.8c1.5,0.7,3.1,1.3,4.6,2
		c0.8,0.3,1.1,1.2,0.8,2C419,77.9,418.4,78.3,417.8,78.3z M219.2,72.9c-0.6,0-1.2-0.4-1.4-1c-0.3-0.8,0.1-1.6,0.9-1.9
		c1.6-0.6,3.1-1.2,4.7-1.7c0.8-0.3,1.6,0.1,1.9,0.9c0.3,0.8-0.1,1.6-0.9,1.9c-1.6,0.6-3.1,1.1-4.6,1.7
		C219.6,72.8,219.4,72.9,219.2,72.9z M404,72.6c-0.2,0-0.4,0-0.5-0.1c-1.5-0.6-3.1-1.2-4.7-1.7c-0.8-0.3-1.2-1.1-0.9-1.9
		c0.3-0.8,1.1-1.2,1.9-0.9c1.6,0.6,3.1,1.1,4.7,1.7c0.8,0.3,1.2,1.2,0.9,1.9C405.2,72.2,404.6,72.6,404,72.6z M228.6,69.5
		c-0.6,0-1.2-0.4-1.4-1c-0.3-0.8,0.2-1.6,0.9-1.9c3.1-1.1,6.3-2.1,9.5-3c0.8-0.2,1.6,0.2,1.9,1c0.2,0.8-0.2,1.6-1,1.9
		c-3.2,0.9-6.3,1.9-9.4,3C228.9,69.5,228.7,69.5,228.6,69.5z M394.6,69.2c-0.2,0-0.3,0-0.5-0.1c-3.1-1-6.3-2-9.4-3
		c-0.8-0.2-1.3-1.1-1-1.9s1.1-1.2,1.9-1c3.2,0.9,6.4,1.9,9.5,3c0.8,0.3,1.2,1.1,0.9,1.9C395.8,68.8,395.2,69.2,394.6,69.2z
		 M242.8,65.1c-0.7,0-1.3-0.4-1.4-1.1c-0.2-0.8,0.2-1.6,1-1.8c1.6-0.4,3.2-0.9,4.8-1.3c0.8-0.2,1.6,0.3,1.8,1.1
		c0.2,0.8-0.3,1.6-1.1,1.8c-1.6,0.4-3.2,0.8-4.8,1.3C243.1,65.1,243,65.1,242.8,65.1z M380.4,64.9c-0.1,0-0.3,0-0.4-0.1
		c-1.6-0.4-3.2-0.8-4.8-1.3c-0.8-0.2-1.3-1-1.1-1.8c0.2-0.8,1-1.3,1.8-1.1c1.6,0.4,3.2,0.8,4.8,1.3c0.8,0.2,1.3,1,1.1,1.8
		C381.6,64.4,381,64.9,380.4,64.9z M257.3,61.6c-0.7,0-1.3-0.5-1.5-1.2c-0.2-0.8,0.3-1.6,1.2-1.8c1.6-0.3,3.3-0.7,4.9-1
		c0.8-0.2,1.6,0.4,1.8,1.2c0.2,0.8-0.4,1.6-1.2,1.8c-1.6,0.3-3.2,0.6-4.8,1C257.5,61.6,257.4,61.6,257.3,61.6z M365.9,61.4
		c-0.1,0-0.2,0-0.3,0c-1.6-0.3-3.2-0.7-4.8-1c-0.8-0.2-1.3-0.9-1.2-1.8c0.2-0.8,0.9-1.3,1.8-1.2c1.6,0.3,3.3,0.6,4.9,1
		c0.8,0.2,1.3,1,1.2,1.8C367.2,60.9,366.6,61.4,365.9,61.4z M267.1,59.7c-0.7,0-1.3-0.5-1.5-1.2c-0.1-0.8,0.4-1.6,1.2-1.7
		c3.3-0.6,6.6-1.1,9.9-1.5c0.8-0.1,1.6,0.5,1.7,1.3c0.1,0.8-0.5,1.6-1.3,1.7c-3.2,0.4-6.5,0.9-9.8,1.5
		C267.2,59.7,267.1,59.7,267.1,59.7z M356.1,59.5c-0.1,0-0.2,0-0.3,0c-3.2-0.6-6.5-1-9.8-1.5c-0.8-0.1-1.4-0.9-1.3-1.7
		s0.9-1.4,1.7-1.3c3.3,0.4,6.6,0.9,9.9,1.5c0.8,0.1,1.4,0.9,1.2,1.7C357.4,59,356.8,59.5,356.1,59.5z M281.8,57.5
		c-0.8,0-1.4-0.6-1.5-1.3c-0.1-0.8,0.5-1.6,1.3-1.7c1.7-0.2,3.3-0.4,5-0.5c0.8-0.1,1.6,0.5,1.6,1.3c0.1,0.8-0.5,1.6-1.3,1.6
		c-1.6,0.2-3.3,0.3-4.9,0.5C281.9,57.5,281.9,57.5,281.8,57.5z M341.3,57.4c-0.1,0-0.1,0-0.2,0c-1.6-0.2-3.3-0.4-4.9-0.5
		c-0.8-0.1-1.4-0.8-1.4-1.6c0.1-0.8,0.8-1.4,1.6-1.4c1.7,0.2,3.3,0.3,5,0.5c0.8,0.1,1.4,0.8,1.3,1.7
		C342.7,56.9,342.1,57.4,341.3,57.4z M296.7,56.2c-0.8,0-1.5-0.6-1.5-1.4c0-0.8,0.6-1.5,1.4-1.6c1.7-0.1,3.3-0.2,5-0.2
		c0.9,0,1.5,0.6,1.6,1.4c0,0.8-0.6,1.5-1.4,1.6C300,56.1,298.4,56.1,296.7,56.2C296.7,56.2,296.7,56.2,296.7,56.2z M326.5,56.2
		C326.4,56.2,326.4,56.2,326.5,56.2c-1.7-0.1-3.4-0.2-5-0.2c-0.8,0-1.5-0.7-1.4-1.6c0-0.8,0.7-1.5,1.6-1.4c1.7,0.1,3.3,0.1,5,0.2
		c0.8,0,1.5,0.8,1.4,1.6C327.9,55.6,327.3,56.2,326.5,56.2z M306.6,55.8c-0.8,0-1.5-0.7-1.5-1.5c0-0.8,0.6-1.5,1.5-1.5
		c3.3-0.1,6.7-0.1,10,0c0.8,0,1.5,0.7,1.5,1.5c0,0.8-0.7,1.5-1.5,1.5c0,0,0,0,0,0C313.2,55.8,309.9,55.8,306.6,55.8
		C306.6,55.8,306.6,55.8,306.6,55.8z"/>
</g>
<g>
	<polygon fill="#FFFFFF" points="506.7,223.5 503.3,234.5 491.6,234.5 501.3,241 497.4,252.3 506.7,245.2 516.1,252.3 512.5,241 
		521.8,234.5 510,234.5 	"/>
</g>
<g>
	<polygon fill="#FFFFFF" points="515.4,274.2 512,285.1 500.3,285.1 510,291.6 506.1,302.9 515.4,295.8 524.8,302.9 521.2,291.6 
		530.5,285.1 518.7,285.1 	"/>
</g>
<g>
	<polygon fill="#FFFFFF" points="510.7,326.6 507.3,337.5 495.6,337.5 505.3,344 501.4,355.3 510.7,348.2 520.1,355.3 516.5,344 
		525.8,337.5 514,337.5 	"/>
</g>
<g>
	<path fill="#FFFFFF" d="M322,436.4c5.7-6,10.6-12.9,11.8-21c2-14.2-8.3-26.3-16.5-36.7c-8.8-11.2-18.1-22-27.8-32.3
		c-8.6-9.1-17.4-17.9-22.3-29.5c-9.4-22.1-3.3-47.7,5.6-68.8c6.1-14.7,14-28.6,20.2-43.2c-19,29.7-51,83.2-53.4,109.8
		c-4.8,54.3,40.3,83.5,67.9,94.5C323.5,415.7,322.8,430.9,322,436.4"/>
</g>
<g>
	<path fill="#FFFFFF" d="M332.7,279.2c-41.9-35.5-25.8-95.5-25.8-95.5s-0.8,1.2-2.3,3.4c-6.2,22.4-19,42.3-27.7,63.9
		c-9.7,23.8-15.4,53,1.2,75.2c8.5,11.4,19.3,21.1,28.6,31.9c8.7,10.1,18,20.5,25,31.9c6,9.7,9.8,21.3,5.3,32.5
		c-1.6,3.9-3.6,7.4-6,10.7C436.4,370.6,370.8,311.4,332.7,279.2"/>
</g>
</svg>
